<?xml version="1.0" encoding="utf-8"?>
<svg xmlns="http://www.w3.org/2000/svg" xmlns:xlink="http://www.w3.org/1999/xlink" width="500" zoomAndPan="magnify" viewBox="0 0 375 374.999991" height="500" preserveAspectRatio="xMidYMid meet" version="1.0">
<path fill="#2775c9" d="M 187.5 375 C 291.054688 375 375 291.054688 375 187.5 C 375 83.945312 291.054688 0 187.5 0 C 83.945312 0 0 83.945312 0 187.5 C 0 291.054688 83.945312 375 187.5 375 Z M 187.5 375" fill-opacity="1" fill-rule="nonzero"/>
<path fill="#fff" d="M 184.570312 322.265625 C 108.515625 322.265625 46.875 260.625 46.875 184.570312 C 46.875 108.515625 108.515625 46.875 184.570312 46.875 C 260.625 46.875 322.265625 108.515625 322.265625 184.570312 C 322.265625 221.089844 307.757812 256.113281 281.933594 281.933594 C 256.113281 307.757812 221.089844 322.265625 184.570312 322.265625 Z M 176.367188 133.476562 C 168.832031 133.851562 161.710938 137.027344 156.398438 142.382812 C 151.085938 147.738281 147.96875 154.886719 147.65625 162.421875 C 147.65625 176.601562 156.328125 185.859375 174.726562 189.726562 L 187.617188 192.773438 C 200.15625 195.703125 205.3125 199.921875 205.3125 207.070312 C 205.3125 214.21875 196.289062 221.25 184.570312 221.25 C 180.40625 221.632812 176.222656 220.832031 172.492188 218.949219 C 168.761719 217.0625 165.636719 214.164062 163.476562 210.585938 C 162.835938 209.226562 161.824219 208.078125 160.5625 207.269531 C 159.296875 206.460938 157.828125 206.027344 156.328125 206.015625 L 149.414062 206.015625 C 148.882812 206.113281 148.375 206.316406 147.921875 206.613281 C 147.46875 206.90625 147.078125 207.289062 146.773438 207.734375 C 146.46875 208.183594 146.253906 208.683594 146.144531 209.214844 C 146.035156 209.742188 146.03125 210.289062 146.132812 210.820312 C 147.816406 217.695312 151.734375 223.816406 157.265625 228.226562 C 162.800781 232.636719 169.644531 235.085938 176.71875 235.195312 L 176.71875 245.039062 C 176.71875 247.230469 177.589844 249.332031 179.136719 250.878906 C 180.6875 252.429688 182.789062 253.300781 184.980469 253.300781 C 187.171875 253.300781 189.273438 252.429688 190.824219 250.878906 C 192.371094 249.332031 193.242188 247.230469 193.242188 245.039062 L 193.242188 235.078125 C 201.242188 234.988281 208.894531 231.777344 214.5625 226.128906 C 220.230469 220.480469 223.472656 212.84375 223.59375 204.84375 C 223.59375 189.960938 215.039062 181.40625 194.765625 177.070312 L 183.046875 174.492188 C 171.328125 171.5625 165.820312 167.695312 165.820312 161.132812 C 165.820312 154.570312 172.851562 147.304688 184.570312 147.304688 C 188.261719 146.917969 191.984375 147.609375 195.289062 149.292969 C 198.597656 150.980469 201.34375 153.585938 203.203125 156.796875 C 203.957031 158.402344 205.148438 159.757812 206.640625 160.714844 C 208.136719 161.667969 209.867188 162.179688 211.640625 162.1875 L 217.148438 162.1875 C 218.402344 161.882812 219.484375 161.09375 220.164062 160 C 220.839844 158.902344 221.0625 157.585938 220.78125 156.328125 C 219.191406 149.980469 215.644531 144.296875 210.632812 140.089844 C 205.625 135.882812 199.414062 133.363281 192.890625 132.890625 L 192.890625 124.804688 C 192.890625 122.613281 192.019531 120.511719 190.46875 118.960938 C 188.921875 117.414062 186.820312 116.542969 184.628906 116.542969 C 182.4375 116.542969 180.335938 117.414062 178.785156 118.960938 C 177.238281 120.511719 176.367188 122.613281 176.367188 124.804688 Z M 81.328125 184.570312 C 81.339844 206.15625 88.136719 227.195312 100.753906 244.710938 C 113.371094 262.226562 131.171875 275.335938 151.640625 282.1875 L 153.28125 282.1875 C 154.679688 282.1875 156.019531 281.632812 157.011719 280.644531 C 158 279.652344 158.554688 278.3125 158.554688 276.914062 L 158.554688 274.453125 C 158.558594 272.273438 157.914062 270.136719 156.703125 268.324219 C 155.496094 266.507812 153.773438 265.09375 151.757812 264.257812 C 135.816406 257.824219 122.160156 246.769531 112.542969 232.519531 C 102.929688 218.269531 97.789062 201.46875 97.789062 184.277344 C 97.789062 167.085938 102.929688 150.285156 112.542969 136.035156 C 122.160156 121.785156 135.816406 110.730469 151.757812 104.296875 C 153.765625 103.480469 155.480469 102.089844 156.691406 100.292969 C 157.902344 98.5 158.550781 96.382812 158.554688 94.21875 L 158.554688 91.523438 C 158.5625 90.730469 158.378906 89.949219 158.019531 89.246094 C 157.660156 88.539062 157.136719 87.929688 156.492188 87.472656 C 155.851562 87.011719 155.105469 86.714844 154.320312 86.601562 C 153.535156 86.492188 152.738281 86.570312 151.992188 86.835938 C 131.4375 93.632812 113.546875 106.734375 100.859375 124.28125 C 88.175781 141.824219 81.339844 162.917969 81.328125 184.570312 Z M 287.8125 184.570312 C 287.773438 163.003906 280.96875 141.992188 268.351562 124.5 C 255.738281 107.007812 237.953125 93.914062 217.5 87.070312 L 215.742188 87.070312 C 214.28125 87.070312 212.878906 87.652344 211.847656 88.683594 C 210.8125 89.714844 210.234375 91.117188 210.234375 92.578125 L 210.234375 94.335938 C 210.28125 96.597656 210.980469 98.792969 212.25 100.664062 C 213.519531 102.535156 215.300781 104 217.382812 104.882812 C 233.289062 111.335938 246.90625 122.390625 256.496094 136.625 C 266.082031 150.863281 271.203125 167.640625 271.203125 184.804688 C 271.203125 201.96875 266.082031 218.746094 256.496094 232.984375 C 246.90625 247.21875 233.289062 258.273438 217.382812 264.726562 C 215.339844 265.617188 213.59375 267.070312 212.351562 268.917969 C 211.105469 270.765625 210.410156 272.929688 210.351562 275.15625 L 210.351562 277.148438 C 210.363281 278.015625 210.578125 278.871094 210.980469 279.640625 C 211.382812 280.410156 211.960938 281.074219 212.671875 281.578125 C 213.378906 282.078125 214.199219 282.40625 215.054688 282.535156 C 215.917969 282.660156 216.792969 282.582031 217.617188 282.304688 C 238.085938 275.425781 255.871094 262.289062 268.46875 244.753906 C 281.066406 227.214844 287.832031 206.160156 287.8125 184.570312 Z M 287.8125 184.570312" fill-opacity="1" fill-rule="nonzero"/>
</svg>
