<?xml version="1.0" encoding="utf-8"?>
<svg xmlns="http://www.w3.org/2000/svg" xmlns:xlink="http://www.w3.org/1999/xlink" width="500" zoomAndPan="magnify" viewBox="0 0 375 374.999991" height="500" preserveAspectRatio="xMidYMid meet" version="1.0">
<path fill="#f5ac37" d="M 187.5 0 C 291.0625 0 375 83.953125 375 187.5 C 375 291.0625 291.0625 375 187.5 375 C 83.953125 375 0 291.054688 0 187.5 C 0 83.953125 83.953125 0 187.5 0 Z M 187.5 0" fill-opacity="1" fill-rule="nonzero"/>
<path fill="#fefefd" d="M 194.410156 200.738281 L 265.65625 200.738281 C 267.175781 200.738281 267.894531 200.738281 268.003906 198.746094 C 268.585938 191.5 268.585938 184.210938 268.003906 176.953125 C 268.003906 175.542969 267.300781 174.960938 265.777344 174.960938 L 123.980469 174.960938 C 122.226562 174.960938 121.753906 175.542969 121.753906 177.1875 L 121.753906 198.046875 C 121.753906 200.738281 121.753906 200.738281 124.5625 200.738281 Z M 260.046875 150.585938 C 260.25 150.054688 260.25 149.472656 260.046875 148.949219 C 258.855469 146.359375 257.449219 143.886719 255.8125 141.566406 C 253.347656 137.601562 250.445312 133.945312 247.136719 130.664062 C 245.574219 128.679688 243.769531 126.902344 241.746094 125.390625 C 231.601562 116.757812 219.546875 110.652344 206.585938 107.578125 C 200.046875 106.109375 193.363281 105.410156 186.664062 105.46875 L 123.738281 105.46875 C 121.980469 105.46875 121.746094 106.171875 121.746094 107.699219 L 121.746094 149.292969 C 121.746094 151.050781 121.746094 151.523438 123.972656 151.523438 L 259.203125 151.523438 C 259.203125 151.523438 260.375 151.285156 260.613281 150.585938 L 260.039062 150.585938 Z M 260.046875 225.113281 C 258.054688 224.894531 256.046875 224.894531 254.054688 225.113281 L 124.101562 225.113281 C 122.34375 225.113281 121.753906 225.113281 121.753906 227.460938 L 121.753906 268.128906 C 121.753906 270.003906 121.753906 270.476562 124.101562 270.476562 L 184.101562 270.476562 C 186.96875 270.695312 189.835938 270.492188 192.648438 269.894531 C 201.355469 269.269531 209.917969 267.378906 218.085938 264.265625 C 221.054688 263.234375 223.925781 261.894531 226.632812 260.28125 L 227.453125 260.28125 C 241.515625 252.96875 252.941406 241.476562 260.148438 227.367188 C 260.148438 227.367188 260.964844 225.59375 260.046875 225.132812 Z M 98.203125 291.5625 L 98.203125 226.761719 C 98.203125 225.234375 98.203125 225.003906 96.332031 225.003906 L 70.902344 225.003906 C 69.492188 225.003906 68.910156 225.003906 68.910156 223.132812 L 68.910156 200.863281 L 96.09375 200.863281 C 97.613281 200.863281 98.203125 200.863281 98.203125 198.875 L 98.203125 176.84375 C 98.203125 175.433594 98.203125 175.089844 96.332031 175.089844 L 70.902344 175.089844 C 69.492188 175.089844 68.910156 175.089844 68.910156 173.214844 L 68.910156 152.59375 C 68.910156 151.304688 68.910156 150.957031 70.78125 150.957031 L 95.976562 150.957031 C 97.734375 150.957031 98.203125 150.957031 98.203125 148.730469 L 98.203125 85.566406 C 98.203125 83.691406 98.203125 83.21875 100.550781 83.21875 L 188.4375 83.21875 C 194.816406 83.472656 201.152344 84.171875 207.421875 85.328125 C 220.339844 87.71875 232.75 92.332031 244.097656 98.921875 C 251.625 103.351562 258.554688 108.703125 264.722656 114.859375 C 269.363281 119.679688 273.546875 124.894531 277.257812 130.445312 C 280.945312 136.074219 284.007812 142.089844 286.414062 148.375 C 286.710938 150.011719 288.277344 151.117188 289.914062 150.839844 L 310.890625 150.839844 C 313.582031 150.839844 313.582031 150.839844 313.699219 153.421875 L 313.699219 172.640625 C 313.699219 174.515625 313 174.988281 311.117188 174.988281 L 294.945312 174.988281 C 293.308594 174.988281 292.835938 174.988281 292.953125 177.097656 C 293.59375 184.234375 293.59375 191.398438 292.953125 198.535156 C 292.953125 200.527344 292.953125 200.765625 295.1875 200.765625 L 313.691406 200.765625 C 314.511719 201.820312 313.691406 202.875 313.691406 203.9375 C 313.8125 205.292969 313.8125 206.671875 313.691406 208.027344 L 313.691406 222.210938 C 313.691406 224.203125 313.109375 224.792969 311.347656 224.792969 L 289.199219 224.792969 C 287.652344 224.5 286.152344 225.484375 285.796875 227.023438 C 280.523438 240.734375 272.085938 253.027344 261.183594 262.882812 C 257.203125 266.46875 253.019531 269.84375 248.648438 272.957031 C 243.957031 275.65625 239.390625 278.464844 234.582031 280.691406 C 225.730469 284.675781 216.449219 287.613281 206.921875 289.476562 C 197.878906 291.097656 188.707031 291.832031 179.5 291.703125 L 98.171875 291.703125 L 98.171875 291.585938 Z M 98.203125 291.5625" fill-opacity="1" fill-rule="nonzero"/>
</svg>
