<?xml version="1.0" encoding="utf-8"?>
<svg xmlns="http://www.w3.org/2000/svg" xmlns:xlink="http://www.w3.org/1999/xlink" width="500" zoomAndPan="magnify" viewBox="0 0 375 374.999991" height="500" preserveAspectRatio="xMidYMid meet" version="1.0">
<path fill="#53ae94" d="M 187.5 0 C 291.046875 0 375 83.953125 375 187.5 C 375 291.046875 291.046875 375 187.5 375 C 83.953125 375 0 291.070312 0 187.5 C 0 83.929688 83.941406 0 187.5 0" fill-opacity="1" fill-rule="nonzero"/>
<path fill="#fff" d="M 210.640625 162.515625 L 210.640625 134.625 L 274.425781 134.625 L 274.425781 92.125 L 100.738281 92.125 L 100.738281 134.625 L 164.53125 134.625 L 164.53125 162.496094 C 112.6875 164.875 73.707031 175.144531 73.707031 187.445312 C 73.707031 199.742188 112.707031 210.011719 164.53125 212.40625 L 164.53125 301.75 L 210.65625 301.75 L 210.65625 212.398438 C 262.40625 210.011719 301.308594 199.75 301.308594 187.460938 C 301.308594 175.171875 262.40625 164.914062 210.65625 162.523438 M 210.65625 204.832031 L 210.65625 204.808594 C 209.355469 204.890625 202.667969 205.292969 187.78125 205.292969 C 175.878906 205.292969 167.503906 204.957031 164.554688 204.800781 L 164.554688 204.839844 C 118.75 202.8125 84.5625 194.835938 84.5625 185.292969 C 84.5625 175.746094 118.753906 167.78125 164.554688 165.75 L 164.554688 196.894531 C 167.554688 197.101562 176.132812 197.605469 187.976562 197.605469 C 202.199219 197.605469 209.351562 197.015625 210.664062 196.894531 L 210.664062 165.75 C 256.375 167.785156 290.484375 175.769531 290.484375 185.28125 C 290.484375 194.789062 256.359375 202.777344 210.664062 204.8125" fill-opacity="1" fill-rule="nonzero"/>
</svg>
