<svg width="614" height="605" viewBox="0 0 614 605" fill="none" xmlns="http://www.w3.org/2000/svg">
<path fill-rule="evenodd" clip-rule="evenodd" d="M153.91 82.6087C153.91 77.2405 158.261 72.8887 163.63 72.8887H187.93H212.23C217.598 72.8887 221.95 77.2405 221.95 82.6087V174.949V199.249C221.95 204.617 226.301 208.969 231.67 208.969H246.25C251.618 208.969 255.97 204.617 255.97 199.249V174.949V140.929V106.909V82.6087C255.97 77.2405 260.321 72.8887 265.69 72.8887H280.27C285.638 72.8887 289.99 77.2405 289.99 82.6087V106.909V140.929V174.949V204.109C289.99 209.477 285.638 213.829 280.27 213.829H265.69C260.321 213.829 255.97 218.18 255.97 223.549V233.269C255.97 238.637 251.618 242.989 246.25 242.989H221.95H197.65C192.281 242.989 187.93 238.637 187.93 233.269V208.969V174.949V116.629C187.93 111.26 183.578 106.909 178.21 106.909H163.63C158.261 106.909 153.91 111.26 153.91 116.629V140.929V174.949V208.969V233.269C153.91 238.637 149.558 242.989 144.19 242.989H129.61C124.241 242.989 119.89 238.637 119.89 233.269V208.969V174.949V140.929V112.376C119.89 107.008 124.241 102.656 129.61 102.656H144.19C149.558 102.656 153.91 98.3044 153.91 92.9362V82.6087Z" fill="black"/>
<path fill-rule="evenodd" clip-rule="evenodd" d="M358.03 82.6087C358.03 77.2405 362.381 72.8887 367.75 72.8887H392.05H426.07H460.09H484.39C489.758 72.8887 494.11 77.2405 494.11 82.6087V97.1887C494.11 102.557 489.758 106.909 484.39 106.909H460.09H426.07H392.05H367.75C362.381 106.909 358.03 111.26 358.03 116.629V131.209C358.03 136.577 362.381 140.929 367.75 140.929H392.05H426.07H460.09H484.39C489.758 140.929 494.11 145.28 494.11 150.649V165.229C494.11 170.597 489.758 174.949 484.39 174.949H460.09H426.07H392.05H367.75C362.381 174.949 358.03 179.3 358.03 184.669V199.249C358.03 204.617 362.381 208.969 367.75 208.969H392.05H426.07H460.09H484.39C489.758 208.969 494.11 213.32 494.11 218.689V233.269C494.11 238.637 489.758 242.989 484.39 242.989H460.09H426.07H392.05H367.75C362.381 242.989 358.03 238.637 358.03 233.269V223.549C358.03 218.18 353.678 213.829 348.31 213.829H333.73C328.361 213.829 324.01 209.477 324.01 204.109V174.949V140.929V111.769C324.01 106.4 328.361 102.049 333.73 102.049H348.31C353.678 102.049 358.03 97.6969 358.03 92.3287V82.6087Z" fill="black"/>
<path fill-rule="evenodd" clip-rule="evenodd" d="M187.93 277.008H163.63C158.261 277.008 153.91 281.36 153.91 286.728V296.448C153.91 301.816 149.558 306.168 144.19 306.168H129.61C124.241 306.168 119.89 310.52 119.89 315.888V345.048V379.068V413.088V437.388C119.89 442.756 124.241 447.108 129.61 447.108H144.19C149.558 447.108 153.91 442.756 153.91 437.388V425.238C153.91 419.87 158.261 415.518 163.63 415.518H178.21C183.578 415.518 187.93 419.87 187.93 425.238V437.388C187.93 442.756 192.281 447.108 197.65 447.108H221.95H255.97H280.27C285.638 447.108 289.99 442.756 289.99 437.388V422.808C289.99 417.44 285.638 413.088 280.27 413.088H255.97H221.95H200.08C194.711 413.088 190.36 408.736 190.36 403.368V388.788C190.36 383.42 194.711 379.068 200.08 379.068H221.95H246.25C251.618 379.068 255.97 374.716 255.97 369.348V355.983C255.97 350.615 260.321 346.263 265.69 346.263H280.27C285.638 346.263 289.99 341.911 289.99 336.543V315.888C289.99 310.52 285.638 306.168 280.27 306.168H265.69C260.321 306.168 255.97 301.816 255.97 296.448V286.728C255.97 281.36 251.618 277.008 246.25 277.008H221.95H187.93ZM153.91 366.918C153.91 372.286 158.261 376.638 163.63 376.638H178.21C183.578 376.638 187.93 372.286 187.93 366.918V354.768C187.93 349.4 192.281 345.048 197.65 345.048H221.95H246.25C251.618 345.048 255.97 340.696 255.97 335.328V320.748C255.97 315.38 251.618 311.028 246.25 311.028H221.95H187.93H163.63C158.261 311.028 153.91 315.38 153.91 320.748V345.048V366.918Z" fill="black"/>
<path fill-rule="evenodd" clip-rule="evenodd" d="M392.05 277.008H367.75C362.381 277.008 358.03 281.36 358.03 286.728V296.448C358.03 301.816 353.678 306.168 348.31 306.168H333.73C328.361 306.168 324.01 310.52 324.01 315.888V345.048V379.068V408.228C324.01 413.596 328.361 417.948 333.73 417.948H348.31C353.678 417.948 358.03 422.3 358.03 427.668V437.388C358.03 442.756 362.381 447.108 367.75 447.108H392.05H426.07H450.37C455.738 447.108 460.09 442.756 460.09 437.388V427.668C460.09 422.3 464.441 417.948 469.81 417.948H484.39C489.758 417.948 494.11 413.596 494.11 408.228V379.068V345.048V315.888C494.11 310.52 489.758 306.168 484.39 306.168H469.81C464.441 306.168 460.09 301.816 460.09 296.448V286.728C460.09 281.36 455.738 277.008 450.37 277.008H426.07H392.05ZM460.09 379.068V345.048V320.748C460.09 315.38 455.738 311.028 450.37 311.028H426.07H392.05H367.75C362.381 311.028 358.03 315.38 358.03 320.748V345.048V379.068V403.368C358.03 408.736 362.381 413.088 367.75 413.088H392.05H426.07H450.37C455.738 413.088 460.09 408.736 460.09 403.368V379.068Z" fill="black"/>
<path d="M289.991 252.708C289.991 247.34 294.343 242.988 299.711 242.988H314.291C319.66 242.988 324.011 247.34 324.011 252.708V267.288C324.011 272.656 319.66 277.008 314.291 277.008H299.711C294.343 277.008 289.991 272.656 289.991 267.288V252.708Z" fill="black"/>
<path fill-rule="evenodd" clip-rule="evenodd" d="M46.9915 80.1802C46.9915 35.8925 82.8937 -0.00976562 127.181 -0.00976562H486.821C531.109 -0.00976562 567.011 35.8925 567.011 80.1802V439.82C567.011 484.108 531.109 520.01 486.821 520.01H127.181C82.8937 520.01 46.9915 484.108 46.9915 439.82V80.1802ZM127.181 34.0102C101.682 34.0102 81.0115 54.6812 81.0115 80.1802V439.82C81.0115 465.319 101.682 485.99 127.181 485.99H486.821C512.32 485.99 532.991 465.319 532.991 439.82V80.1802C532.991 54.6812 512.32 34.0102 486.821 34.0102H127.181Z" fill="black"/>
<path d="M0 460C0 379.919 63.7992 315 142.499 315H471.501C550.201 315 614 379.919 614 460C614 540.081 550.201 605 471.501 605H142.499C63.7992 605 0 540.081 0 460Z" fill="url(#paint0_linear_328_663)"/>
<path d="M416.911 522.274C409.143 522.274 404.267 517.65 404.267 510.334C404.267 508.232 404.846 505.373 405.92 502.262L438.479 412.037C441.95 402.199 447.817 397.658 457.237 397.658C466.988 397.658 472.773 402.031 476.326 411.953L509.05 502.262C510.207 505.541 510.62 507.811 510.62 510.334C510.62 517.313 505.414 522.274 498.142 522.274C491.118 522.274 487.399 518.995 485.168 511.091L478.888 491.919H435.834L429.554 510.839C427.24 518.911 423.522 522.274 416.911 522.274ZM441.288 472.243H473.103L457.32 422.548H456.741L441.288 472.243Z" fill="url(#paint1_linear_328_663)"/>
<path d="M359.29 522.272C351.439 522.272 346.812 517.395 346.812 509.071V420.36H322.186C315.41 420.36 310.865 416.407 310.865 409.849C310.865 403.29 315.327 399.338 322.186 399.338H396.476C403.252 399.338 407.715 403.29 407.715 409.849C407.715 416.407 403.17 420.36 396.476 420.36H371.768V509.071C371.768 517.395 367.14 522.272 359.29 522.272Z" fill="url(#paint2_linear_328_663)"/>
<path d="M228.676 520.675C220.826 520.675 216.198 515.798 216.198 507.389V412.539C216.198 404.215 220.826 399.338 228.676 399.338H285.365C292.223 399.338 296.686 403.29 296.686 409.849C296.686 416.407 292.141 420.359 285.365 420.359H241.154V449.537H283.216C289.414 449.537 293.628 453.237 293.628 459.292C293.628 465.346 289.496 469.046 283.216 469.046H241.154V499.653H285.365C292.141 499.653 296.686 503.605 296.686 510.164C296.686 516.723 292.223 520.675 285.365 520.675H228.676Z" fill="url(#paint3_linear_328_663)"/>
<path d="M115.344 520.675C107.494 520.675 102.866 515.798 102.866 507.389V412.539C102.866 404.215 107.494 399.338 115.344 399.338H154.762C177.156 399.338 191.204 411.026 191.204 429.609C191.204 442.895 181.453 453.994 168.81 455.928V456.601C185.007 457.862 196.906 469.886 196.906 485.947C196.906 507.305 181.123 520.675 155.671 520.675H115.344ZM127.822 449.79H145.754C159.059 449.79 166.661 443.82 166.661 433.561C166.661 423.807 159.968 418.257 148.316 418.257H127.822V449.79ZM127.822 501.755H149.308C163.686 501.755 171.454 495.533 171.454 483.929C171.454 472.577 163.438 466.523 148.729 466.523H127.822V501.755Z" fill="url(#paint4_linear_328_663)"/>
<defs>
<linearGradient id="paint0_linear_328_663" x1="307" y1="315" x2="307" y2="605" gradientUnits="userSpaceOnUse">
<stop stop-color="white"/>
<stop offset="1" stop-color="#DDDDDD"/>
</linearGradient>
<linearGradient id="paint1_linear_328_663" x1="304.499" y1="356.734" x2="304.499" y2="562.007" gradientUnits="userSpaceOnUse">
<stop stop-color="#F25F5F"/>
<stop offset="1" stop-color="#FF0000"/>
</linearGradient>
<linearGradient id="paint2_linear_328_663" x1="304.512" y1="356.732" x2="304.512" y2="562.005" gradientUnits="userSpaceOnUse">
<stop stop-color="#F25F5F"/>
<stop offset="1" stop-color="#FF0000"/>
</linearGradient>
<linearGradient id="paint3_linear_328_663" x1="304.5" y1="356.732" x2="304.5" y2="562.005" gradientUnits="userSpaceOnUse">
<stop stop-color="#F25F5F"/>
<stop offset="1" stop-color="#FF0000"/>
</linearGradient>
<linearGradient id="paint4_linear_328_663" x1="304.499" y1="356.732" x2="304.499" y2="562.005" gradientUnits="userSpaceOnUse">
<stop stop-color="#F25F5F"/>
<stop offset="1" stop-color="#FF0000"/>
</linearGradient>
</defs>
</svg>
